<?xml version="1.0" encoding="utf-8" standalone="no"?>
<!DOCTYPE svg PUBLIC "-//W3C//DTD SVG 1.1//EN"
  "http://www.w3.org/Graphics/SVG/1.1/DTD/svg11.dtd">
<svg xmlns:xlink="http://www.w3.org/1999/xlink" width="358.6125pt" height="358.65375pt" viewBox="0 0 358.6125 358.65375" xmlns="http://www.w3.org/2000/svg" version="1.1">
 <metadata>
  <rdf:RDF xmlns:dc="http://purl.org/dc/elements/1.1/" xmlns:cc="http://creativecommons.org/ns#" xmlns:rdf="http://www.w3.org/1999/02/22-rdf-syntax-ns#">
   <cc:Work>
    <dc:type rdf:resource="http://purl.org/dc/dcmitype/StillImage"/>
    <dc:date>2025-08-15T20:18:06.386470</dc:date>
    <dc:format>image/svg+xml</dc:format>
    <dc:creator>
     <cc:Agent>
      <dc:title>Matplotlib v3.6.3, https://matplotlib.org/</dc:title>
     </cc:Agent>
    </dc:creator>
   </cc:Work>
  </rdf:RDF>
 </metadata>
 <defs>
  <style type="text/css">*{stroke-linejoin: round; stroke-linecap: butt}</style>
 </defs>
 <g id="figure_1">
  <g id="patch_1">
   <path d="M 0 358.65375 
L 358.6125 358.65375 
L 358.6125 0 
L 0 0 
L 0 358.65375 
z
" style="fill: none"/>
  </g>
  <g id="axes_1">
   <g id="patch_2">
    <path d="M 346.769063 179.326875 
C 346.769063 157.485933 342.466873 135.857366 334.108706 115.678967 
C 325.75054 95.500567 313.498941 77.164754 298.055062 61.720875 
C 282.611184 46.276997 264.275371 34.025398 244.096971 25.667231 
C 223.918571 17.309064 202.290005 13.006875 180.449063 13.006875 
C 158.60812 13.006875 136.979554 17.309064 116.801154 25.667231 
C 96.622754 34.025398 78.286941 46.276997 62.843063 61.720875 
C 47.399184 77.164754 35.147585 95.500567 26.789419 115.678967 
C 18.431252 135.857366 14.129063 157.485933 14.129063 179.326875 
C 14.129063 201.167817 18.431252 222.796384 26.789419 242.974783 
C 35.147585 263.153183 47.399184 281.488996 62.843063 296.932875 
C 78.286941 312.376753 96.622754 324.628352 116.801154 332.986519 
C 136.979554 341.344686 158.60812 345.646875 180.449062 345.646875 
C 202.290005 345.646875 223.918571 341.344686 244.096971 332.986519 
C 264.275371 324.628352 282.611184 312.376753 298.055062 296.932875 
C 313.498941 281.488996 325.75054 263.153183 334.108706 242.974783 
C 342.466873 222.796384 346.769063 201.167817 346.769063 179.326875 
M 180.449063 179.326875 
C 180.449063 179.326875 180.449063 179.326875 180.449063 179.326875 
C 180.449063 179.326875 180.449063 179.326875 180.449063 179.326875 
C 180.449063 179.326875 180.449063 179.326875 180.449063 179.326875 
C 180.449063 179.326875 180.449063 179.326875 180.449063 179.326875 
C 180.449063 179.326875 180.449063 179.326875 180.449063 179.326875 
C 180.449063 179.326875 180.449063 179.326875 180.449063 179.326875 
C 180.449063 179.326875 180.449063 179.326875 180.449063 179.326875 
C 180.449063 179.326875 180.449063 179.326875 180.449063 179.326875 
C 180.449063 179.326875 180.449063 179.326875 180.449063 179.326875 
C 180.449063 179.326875 180.449063 179.326875 180.449063 179.326875 
C 180.449063 179.326875 180.449063 179.326875 180.449063 179.326875 
C 180.449063 179.326875 180.449063 179.326875 180.449063 179.326875 
C 180.449063 179.326875 180.449063 179.326875 180.449063 179.326875 
C 180.449063 179.326875 180.449063 179.326875 180.449063 179.326875 
C 180.449063 179.326875 180.449063 179.326875 180.449063 179.326875 
C 180.449063 179.326875 180.449063 179.326875 180.449063 179.326875 
M 346.769063 179.326875 
L 346.769063 179.326875 
z
" style="fill: none"/>
   </g>
   <g id="matplotlib.axis_1">
    <g id="xtick_1">
     <g id="line2d_1">
      <path d="M 180.449063 179.326875 
L 180.449063 13.006875 
" clip-path="url(#p8e35a75e77)" style="fill: none; stroke-dasharray: 2.22,0.96; stroke-dashoffset: 0; stroke: #b0b0b0; stroke-opacity: 0.7; stroke-width: 0.6"/>
     </g>
    </g>
    <g id="xtick_2">
     <g id="line2d_2">
      <path d="M 180.449063 179.326875 
L 298.055062 61.720875 
" clip-path="url(#p8e35a75e77)" style="fill: none; stroke-dasharray: 2.22,0.96; stroke-dashoffset: 0; stroke: #b0b0b0; stroke-opacity: 0.7; stroke-width: 0.6"/>
     </g>
    </g>
    <g id="xtick_3">
     <g id="line2d_3">
      <path d="M 180.449063 179.326875 
L 346.769063 179.326875 
" clip-path="url(#p8e35a75e77)" style="fill: none; stroke-dasharray: 2.22,0.96; stroke-dashoffset: 0; stroke: #b0b0b0; stroke-opacity: 0.7; stroke-width: 0.6"/>
     </g>
    </g>
    <g id="xtick_4">
     <g id="line2d_4">
      <path d="M 180.449063 179.326875 
L 298.055062 296.932875 
" clip-path="url(#p8e35a75e77)" style="fill: none; stroke-dasharray: 2.22,0.96; stroke-dashoffset: 0; stroke: #b0b0b0; stroke-opacity: 0.7; stroke-width: 0.6"/>
     </g>
    </g>
    <g id="xtick_5">
     <g id="line2d_5">
      <path d="M 180.449063 179.326875 
L 180.449063 345.646875 
" clip-path="url(#p8e35a75e77)" style="fill: none; stroke-dasharray: 2.22,0.96; stroke-dashoffset: 0; stroke: #b0b0b0; stroke-opacity: 0.7; stroke-width: 0.6"/>
     </g>
    </g>
    <g id="xtick_6">
     <g id="line2d_6">
      <path d="M 180.449063 179.326875 
L 62.843063 296.932875 
" clip-path="url(#p8e35a75e77)" style="fill: none; stroke-dasharray: 2.22,0.96; stroke-dashoffset: 0; stroke: #b0b0b0; stroke-opacity: 0.7; stroke-width: 0.6"/>
     </g>
    </g>
    <g id="xtick_7">
     <g id="line2d_7">
      <path d="M 180.449063 179.326875 
L 14.129063 179.326875 
" clip-path="url(#p8e35a75e77)" style="fill: none; stroke-dasharray: 2.22,0.96; stroke-dashoffset: 0; stroke: #b0b0b0; stroke-opacity: 0.7; stroke-width: 0.6"/>
     </g>
    </g>
    <g id="xtick_8">
     <g id="line2d_8">
      <path d="M 180.449063 179.326875 
L 62.843063 61.720875 
" clip-path="url(#p8e35a75e77)" style="fill: none; stroke-dasharray: 2.22,0.96; stroke-dashoffset: 0; stroke: #b0b0b0; stroke-opacity: 0.7; stroke-width: 0.6"/>
     </g>
    </g>
   </g>
   <g id="matplotlib.axis_2"/>
   <g id="text_1">
    <!-- C -->
    <g style="fill: #333333" transform="translate(176.045625 16.318125) scale(0.12 -0.12)">
     <defs>
      <path id="DejaVuSans-Bold-43" d="M 4288 256 
Q 3956 84 3597 -3 
Q 3238 -91 2847 -91 
Q 1681 -91 1000 561 
Q 319 1213 319 2328 
Q 319 3447 1000 4098 
Q 1681 4750 2847 4750 
Q 3238 4750 3597 4662 
Q 3956 4575 4288 4403 
L 4288 3438 
Q 3953 3666 3628 3772 
Q 3303 3878 2944 3878 
Q 2300 3878 1931 3465 
Q 1563 3053 1563 2328 
Q 1563 1606 1931 1193 
Q 2300 781 2944 781 
Q 3303 781 3628 887 
Q 3953 994 4288 1222 
L 4288 256 
z
" transform="scale(0.015625)"/>
     </defs>
     <use xlink:href="#DejaVuSans-Bold-43"/>
    </g>
   </g>
   <g id="text_2">
    <!-- G -->
    <g style="fill: #333333" transform="translate(258.684375 38.60078) scale(0.12 -0.12)">
     <defs>
      <path id="DejaVuSans-Bold-47" d="M 4781 347 
Q 4331 128 3847 18 
Q 3363 -91 2847 -91 
Q 1681 -91 1000 561 
Q 319 1213 319 2328 
Q 319 3456 1012 4103 
Q 1706 4750 2913 4750 
Q 3378 4750 3804 4662 
Q 4231 4575 4609 4403 
L 4609 3438 
Q 4219 3659 3833 3768 
Q 3447 3878 3059 3878 
Q 2341 3878 1952 3476 
Q 1563 3075 1563 2328 
Q 1563 1588 1938 1184 
Q 2313 781 3003 781 
Q 3191 781 3352 804 
Q 3513 828 3641 878 
L 3641 1784 
L 2906 1784 
L 2906 2591 
L 4781 2591 
L 4781 347 
z
" transform="scale(0.015625)"/>
     </defs>
     <use xlink:href="#DejaVuSans-Bold-47"/>
    </g>
   </g>
   <g id="text_3">
    <!-- D -->
    <g style="fill: #333333" transform="translate(319.50547 99.478125) scale(0.12 -0.12)">
     <defs>
      <path id="DejaVuSans-Bold-44" d="M 1791 3756 
L 1791 909 
L 2222 909 
Q 2959 909 3348 1275 
Q 3738 1641 3738 2338 
Q 3738 3031 3350 3393 
Q 2963 3756 2222 3756 
L 1791 3756 
z
M 588 4666 
L 1856 4666 
Q 2919 4666 3439 4514 
Q 3959 4363 4331 4000 
Q 4659 3684 4818 3271 
Q 4978 2859 4978 2338 
Q 4978 1809 4818 1395 
Q 4659 981 4331 666 
Q 3956 303 3431 151 
Q 2906 0 1856 0 
L 588 0 
L 588 4666 
z
" transform="scale(0.015625)"/>
     </defs>
     <use xlink:href="#DejaVuSans-Bold-44"/>
    </g>
   </g>
   <g id="text_4">
    <!-- A -->
    <g style="fill: #333333" transform="translate(342.125625 182.638125) scale(0.12 -0.12)">
     <defs>
      <path id="DejaVuSans-Bold-41" d="M 3419 850 
L 1538 850 
L 1241 0 
L 31 0 
L 1759 4666 
L 3194 4666 
L 4922 0 
L 3713 0 
L 3419 850 
z
M 1838 1716 
L 3116 1716 
L 2478 3572 
L 1838 1716 
z
" transform="scale(0.015625)"/>
     </defs>
     <use xlink:href="#DejaVuSans-Bold-41"/>
    </g>
   </g>
   <g id="text_5">
    <!-- E -->
    <g style="fill: #333333" transform="translate(320.387658 265.798125) scale(0.12 -0.12)">
     <defs>
      <path id="DejaVuSans-Bold-45" d="M 588 4666 
L 3834 4666 
L 3834 3756 
L 1791 3756 
L 1791 2888 
L 3713 2888 
L 3713 1978 
L 1791 1978 
L 1791 909 
L 3903 909 
L 3903 0 
L 588 0 
L 588 4666 
z
" transform="scale(0.015625)"/>
     </defs>
     <use xlink:href="#DejaVuSans-Bold-45"/>
    </g>
   </g>
   <g id="text_6">
    <!-- B -->
    <g style="fill: #333333" transform="translate(259.035938 326.67547) scale(0.12 -0.12)">
     <defs>
      <path id="DejaVuSans-Bold-42" d="M 2456 2859 
Q 2741 2859 2887 2984 
Q 3034 3109 3034 3353 
Q 3034 3594 2887 3720 
Q 2741 3847 2456 3847 
L 1791 3847 
L 1791 2859 
L 2456 2859 
z
M 2497 819 
Q 2859 819 3042 972 
Q 3225 1125 3225 1434 
Q 3225 1738 3044 1889 
Q 2863 2041 2497 2041 
L 1791 2041 
L 1791 819 
L 2497 819 
z
M 3616 2497 
Q 4003 2384 4215 2081 
Q 4428 1778 4428 1338 
Q 4428 663 3972 331 
Q 3516 0 2584 0 
L 588 0 
L 588 4666 
L 2394 4666 
Q 3366 4666 3802 4372 
Q 4238 4078 4238 3431 
Q 4238 3091 4078 2852 
Q 3919 2613 3616 2497 
z
" transform="scale(0.015625)"/>
     </defs>
     <use xlink:href="#DejaVuSans-Bold-42"/>
    </g>
   </g>
   <g id="text_7">
    <!-- F♯/G♭ -->
    <g style="fill: #333333" transform="translate(163.5 348.958125) scale(0.12 -0.12)">
     <defs>
      <path id="DejaVuSans-Bold-46" d="M 588 4666 
L 3834 4666 
L 3834 3756 
L 1791 3756 
L 1791 2888 
L 3713 2888 
L 3713 1978 
L 1791 1978 
L 1791 0 
L 588 0 
L 588 4666 
z
" transform="scale(0.015625)"/>
      <path id="DejaVuSans-Bold-266f" d="M 2022 4678 
L 2166 4678 
L 2181 4663 
L 2181 3713 
L 2553 3900 
L 2563 3894 
L 2563 3453 
Q 2553 3431 2181 3244 
L 2181 2078 
L 2563 2250 
L 2563 1828 
Q 2559 1816 2181 1606 
L 2181 678 
L 2166 666 
L 2022 666 
L 2006 678 
L 2006 1531 
L 1106 1094 
L 1106 13 
L 1091 0 
L 959 0 
L 944 13 
L 944 1016 
L 541 828 
L 541 1272 
Q 541 1291 944 1478 
L 944 2663 
L 938 2663 
L 541 2488 
L 541 2922 
L 944 3125 
L 944 4022 
L 959 4034 
L 1091 4034 
L 1106 4022 
L 1106 3203 
L 2006 3622 
L 2006 4663 
L 2022 4678 
z
M 1106 2731 
L 1106 1553 
L 2006 1988 
L 2006 3150 
L 1106 2731 
z
" transform="scale(0.015625)"/>
      <path id="DejaVuSans-Bold-2f" d="M 1644 4666 
L 2338 4666 
L 691 -594 
L 0 -594 
L 1644 4666 
z
" transform="scale(0.015625)"/>
      <path id="DejaVuSans-Bold-266d" d="M 584 4678 
L 725 4678 
L 741 4659 
L 741 1656 
L 750 1656 
Q 1281 2397 1734 2397 
Q 2444 2388 2506 1584 
Q 2416 256 575 -19 
L 566 -9 
L 566 4659 
L 584 4678 
z
M 741 1322 
L 741 213 
Q 2047 522 2047 1475 
Q 2088 2013 1584 2041 
Q 1213 2041 741 1322 
z
" transform="scale(0.015625)"/>
     </defs>
     <use xlink:href="#DejaVuSans-Bold-46"/>
     <use xlink:href="#DejaVuSans-Bold-266f" x="68.310547"/>
     <use xlink:href="#DejaVuSans-Bold-2f" x="116.699219"/>
     <use xlink:href="#DejaVuSans-Bold-47" x="153.222656"/>
     <use xlink:href="#DejaVuSans-Bold-266d" x="235.302734"/>
    </g>
   </g>
   <g id="text_8">
    <!-- D♭ -->
    <g style="fill: #333333" transform="translate(89.477813 326.67547) scale(0.12 -0.12)">
     <use xlink:href="#DejaVuSans-Bold-44"/>
     <use xlink:href="#DejaVuSans-Bold-266d" x="83.007812"/>
    </g>
   </g>
   <g id="text_9">
    <!-- A♭ -->
    <g style="fill: #333333" transform="translate(28.937967 265.798125) scale(0.12 -0.12)">
     <use xlink:href="#DejaVuSans-Bold-41"/>
     <use xlink:href="#DejaVuSans-Bold-266d" x="77.392578"/>
    </g>
   </g>
   <g id="text_10">
    <!-- E♭ -->
    <g style="fill: #333333" transform="translate(7.2 182.638125) scale(0.12 -0.12)">
     <use xlink:href="#DejaVuSans-Bold-45"/>
     <use xlink:href="#DejaVuSans-Bold-266d" x="68.310547"/>
    </g>
   </g>
   <g id="text_11">
    <!-- B♭ -->
    <g style="fill: #333333" transform="translate(29.00828 99.478125) scale(0.12 -0.12)">
     <use xlink:href="#DejaVuSans-Bold-42"/>
     <use xlink:href="#DejaVuSans-Bold-266d" x="76.220703"/>
    </g>
   </g>
   <g id="text_12">
    <!-- F -->
    <g style="fill: #333333" transform="translate(93.190312 38.60078) scale(0.12 -0.12)">
     <use xlink:href="#DejaVuSans-Bold-46"/>
    </g>
   </g>
  </g>
 </g>
 <defs>
  <clipPath id="p8e35a75e77">
   <path d="M 346.769063 179.326875 
C 346.769063 157.485933 342.466873 135.857366 334.108706 115.678967 
C 325.75054 95.500567 313.498941 77.164754 298.055062 61.720875 
C 282.611184 46.276997 264.275371 34.025398 244.096971 25.667231 
C 223.918571 17.309064 202.290005 13.006875 180.449063 13.006875 
C 158.60812 13.006875 136.979554 17.309064 116.801154 25.667231 
C 96.622754 34.025398 78.286941 46.276997 62.843063 61.720875 
C 47.399184 77.164754 35.147585 95.500567 26.789419 115.678967 
C 18.431252 135.857366 14.129063 157.485933 14.129063 179.326875 
C 14.129063 201.167817 18.431252 222.796384 26.789419 242.974783 
C 35.147585 263.153183 47.399184 281.488996 62.843063 296.932875 
C 78.286941 312.376753 96.622754 324.628352 116.801154 332.986519 
C 136.979554 341.344686 158.60812 345.646875 180.449062 345.646875 
C 202.290005 345.646875 223.918571 341.344686 244.096971 332.986519 
C 264.275371 324.628352 282.611184 312.376753 298.055062 296.932875 
C 313.498941 281.488996 325.75054 263.153183 334.108706 242.974783 
C 342.466873 222.796384 346.769063 201.167817 346.769063 179.326875 
M 180.449063 179.326875 
C 180.449063 179.326875 180.449063 179.326875 180.449063 179.326875 
C 180.449063 179.326875 180.449063 179.326875 180.449063 179.326875 
C 180.449063 179.326875 180.449063 179.326875 180.449063 179.326875 
C 180.449063 179.326875 180.449063 179.326875 180.449063 179.326875 
C 180.449063 179.326875 180.449063 179.326875 180.449063 179.326875 
C 180.449063 179.326875 180.449063 179.326875 180.449063 179.326875 
C 180.449063 179.326875 180.449063 179.326875 180.449063 179.326875 
C 180.449063 179.326875 180.449063 179.326875 180.449063 179.326875 
C 180.449063 179.326875 180.449063 179.326875 180.449063 179.326875 
C 180.449063 179.326875 180.449063 179.326875 180.449063 179.326875 
C 180.449063 179.326875 180.449063 179.326875 180.449063 179.326875 
C 180.449063 179.326875 180.449063 179.326875 180.449063 179.326875 
C 180.449063 179.326875 180.449063 179.326875 180.449063 179.326875 
C 180.449063 179.326875 180.449063 179.326875 180.449063 179.326875 
C 180.449063 179.326875 180.449063 179.326875 180.449063 179.326875 
C 180.449063 179.326875 180.449063 179.326875 180.449063 179.326875 
M 346.769063 179.326875 
z
"/>
  </clipPath>
 </defs>
</svg>
